<svg width="50" height="180" viewBox="0 0 50 180" fill="none" xmlns="http://www.w3.org/2000/svg">
<path d="M1.70544 2.75398C4.07183 2.75398 5.36275 3.95005 7.58542 4.5632C14.8475 6.56652 23.5866 5.19643 31.0148 5.19643C34.9246 5.19643 38.8144 5.28118 42.4129 3.38721C43.9157 2.59627 47.9143 0.824239 48.112 4.38228C48.2264 6.4413 48.3675 8.85112 48.112 10.8955C47.9631 12.0862 45.4228 10.5144 44.8554 10.2623C43.2951 9.56877 40.824 10.0813 39.1563 10.0813C33.9217 10.0813 29.1852 8.45303 23.6875 8.45303C19.9563 8.45303 16.1979 8.32449 12.4703 8.45303C11.0637 8.50153 9.61033 9.70478 8.21864 9.08626C7.43372 8.7374 6.58428 7.68641 5.77619 7.63888C4.3793 7.55671 0.595012 4.61244 3.33374 5.82966C5.06099 6.59732 6.51621 7.73267 8.21864 8.63395C13.7653 11.5704 19.8825 11.7096 26.1299 11.7096C30.7343 11.7096 35.366 11.8412 39.9705 11.7096C43.7038 11.603 44.8554 10.6762 44.8554 7.2318C44.8554 1.36687 40.5228 11.0894 37.9351 11.6644C36.408 12.0038 32.8613 9.26718 34.6785 9.26718C39.195 9.26718 35.085 8.45303 32.9145 8.45303C27.8033 8.45303 22.2826 9.34817 17.6266 7.2318C15.7464 6.37716 13.1154 6.82473 11.0682 6.82473C7.24827 6.82473 12.9371 8.45303 14.3248 8.45303C16.7572 8.45303 18.5621 8.71621 20.838 9.22195C26.389 10.4555 24.0108 12.184 22.421 17.0468C20.4977 22.9301 21.562 29.1845 19.7977 35.1391C18.4974 39.5274 19.6167 45.5998 19.6167 50.1556C19.6167 56.7593 19.6167 63.3629 19.6167 69.9666C19.6167 80.1284 19.6167 90.2902 19.6167 100.452C19.6167 112.038 17.9884 123.383 17.9884 135.008C17.9884 140.994 17.9884 146.979 17.9884 152.965C17.9884 155.678 17.9884 158.392 17.9884 161.106C17.9884 163.772 13.7943 161.445 17.5814 163.549C18.6078 164.119 23.2022 163.875 20.7927 163.187C17.3395 162.2 17.0122 163.252 13.5106 164.318C10.1065 165.354 8.80959 167.332 8.17341 170.831C7.6557 173.678 6.63903 174.54 10.254 174.54C12.4251 174.54 14.5962 174.54 16.7672 174.54C20.4417 174.54 19.2753 173.987 17.9884 171.735C15.1195 166.715 6.02625 172.911 14.3248 172.911C15.9079 172.911 21.5615 174.545 22.4663 174.042C23.128 173.674 26.4235 170.081 25.6776 169.655C23.5761 168.454 22.2683 167.795 20.069 167.167C18.1053 166.606 15.1962 162.115 18.8026 162.327C20.5717 162.431 19.1621 168.838 20.6118 170.288C22.7991 172.475 21.9025 174.642 18.8026 173.092C16.7629 172.072 14.7084 170.877 12.7417 169.836C9.45581 168.096 15.097 168.026 16.3601 168.026C19.4382 168.026 13.9959 168.026 13.1035 168.026C12.5901 168.026 17.6517 168.151 13.9177 166.579C12.8493 166.129 10.4099 166.906 12.2894 167.845C13.4909 168.446 15.0459 168.076 16.3601 168.66C20.466 170.484 17.0592 165.791 17.6266 165.629C19.2594 165.163 24.5016 175.734 24.5016 174.133C24.5016 171.983 25.4756 166.648 24.0493 165.222C23.3149 164.488 21.8714 164.77 20.9284 164.77C20.0519 164.77 22.5885 165.408 23.2804 165.946C26.0541 168.103 22.5355 172.483 24.1398 174.087C26.7606 176.708 24.5676 177.081 20.8832 177.751C18.1847 178.242 16.2732 176.602 13.9177 175.761C12.492 175.252 4.76418 173.01 6.59034 172.097" stroke="black" stroke-width="3" stroke-linecap="round"/>
</svg>
