<svg width="102" height="178" viewBox="0 0 102 178" fill="none" xmlns="http://www.w3.org/2000/svg">
<path d="M10.7645 2.19643C10.7645 11.5441 10.7645 20.8917 10.7645 30.2394C10.7645 38.37 11.0684 46.5588 10.3575 54.6639C9.6727 62.4703 8.3221 69.9734 8.3221 77.8219C8.3221 85.9332 8.3221 94.0446 8.3221 102.156C8.3221 105.744 8.3221 109.333 8.3221 112.921C8.3221 114.515 7.49834 119.334 8.7744 120.61C10.6346 122.47 12.8095 117.841 13.8402 116.811C16.029 114.622 18.4703 112.974 21.3033 111.7C25.0555 110.011 31.0895 108.85 35.189 108.85C41.2852 108.85 53.6919 109.141 57.352 115.363C58.7173 117.684 61.3568 118.953 62.8701 121.56C64.8499 124.969 64.6203 129.489 66.4886 132.641C68.7563 136.468 68.5692 142.592 68.5692 147.07C68.5692 159.013 67.7413 169.009 55.9046 174.389C49.2109 177.432 36.8658 176.353 30.4851 173.801C28.8408 173.143 28.1039 171.376 26.6405 170.725C25.5146 170.225 22.8343 169.481 22.1174 168.645C20.8002 167.108 18.4983 166.794 17.4587 165.026C16.2508 162.973 12.9772 160.737 10.9455 159.508C4.14708 155.398 1.8089 147.812 1.8089 140.104C1.8089 133.932 2.76809 129.723 4.61319 123.957C5.56936 120.969 6.71377 120.319 8.72917 118.303C10.7127 116.32 8.3221 117.131 8.3221 114.911C8.3221 113.691 7.04925 105.899 7.96025 105.639C12.2193 104.422 17.6799 103.151 22.1626 103.151C31.9257 103.151 41.797 102.628 51.472 104.01C52.9902 104.227 54.9281 105.33 56.5379 105.774C59.9122 106.705 63.4668 106.408 66.9409 106.408C72.611 106.408 78.7272 104.305 78.339 111.293C78.1873 114.023 68.4927 115.363 66.579 115.363C63.1717 115.363 59.7643 115.363 56.3569 115.363C51.476 115.363 59.3575 115.363 60.8348 115.363C65.6352 115.363 71.6673 115.672 76.6202 116.223C79.1169 116.5 83.207 118.085 85.4854 115.996C86.1175 115.417 85.8699 111.583 86.2996 110.478C87.8939 106.379 73.499 107.222 72.3233 107.222C69.0761 107.222 69.7557 107.122 72.459 107.222C74.7387 107.306 77.3135 107.881 79.1531 109.031C82.2986 110.997 85.1245 121.557 86.2996 124.952C87.158 127.432 86.8443 130.958 87.2494 133.591C87.634 136.091 89.1572 138.708 90.1894 141.054C91.4913 144.013 93.765 146.74 94.8029 149.738C95.4422 151.585 95.6907 154.043 96.4312 155.709C97.2807 157.62 97.8542 156.15 95.8432 155.257C92.6659 153.844 92.5643 153.728 89.2848 155.302C87.4243 156.195 78.5345 161.791 82.7716 164.212C85.1005 165.543 83.7917 171.223 86.4805 171.54C89.8427 171.935 92.0697 174.925 95.4361 172.761C98.4486 170.824 99.5069 164.245 99.5069 160.956C99.5069 157.445 95.3103 155.257 92.1795 155.257C89.6604 155.257 78.6632 153.511 77.5701 157.337C77.0202 159.262 78.855 159.778 79.9673 160.956C81.5891 162.673 79.6252 166.056 81.5956 167.288C84.1896 168.909 85.4698 173.168 88.5159 173.168C91.1866 173.168 93.1127 172.648 95.6171 171.721C97.5998 170.986 96.2503 169.424 96.2503 167.469C96.2503 164.024 97.0644 160.468 97.0644 156.885C97.0644 152.786 93.6216 150.385 92.9485 146.346C92.3423 142.709 91.073 137.311 89.1039 134.089C87.9295 132.167 84.8708 132.991 83.631 130.787C82.3758 128.555 82.4097 126.79 82.4097 124.319C82.4097 121.939 82.4819 113.421 81.1433 111.7C80.1012 110.36 80.3128 107.434 78.7913 106.589C74.4622 104.183 68.0135 105.758 63.5034 106.408C58.3264 107.153 53.2798 108.282 48.0345 107.991C44.1103 107.773 40.2285 106.408 36.365 106.408C31.0524 106.408 25.5639 107.222 20.1273 107.222C18.3807 107.222 9.50478 108.411 8.50302 106.408C7.27886 103.959 6.6938 97.3933 6.6938 94.6024C6.6938 90.6674 6.6938 86.7323 6.6938 82.7973C6.6938 79.1892 7.50795 75.3718 7.50795 71.5801C7.50795 66.7821 14.1099 67.3284 18.0919 67.3284C25.293 67.3284 32.4038 66.5143 39.893 66.5143C45.2693 66.5143 50.7839 66.1139 56.1308 66.5595C57.4144 66.6665 64.2749 67.1567 64.4532 67.7807C65.4415 71.2397 65.6899 77.7601 60.8348 75.0628C56.8343 72.8404 45.0558 74.2901 40.4358 75.289C37.2668 75.9742 33.5892 75.4699 30.3946 75.4699C26.6514 75.4699 22.8417 76.2841 19.2679 76.2841C15.3479 76.2841 11.4279 76.2841 7.50795 76.2841" stroke="black" stroke-width="3" stroke-linecap="round"/>
</svg>
