<svg width="102" height="180" viewBox="0 0 102 180" fill="none" xmlns="http://www.w3.org/2000/svg">
<path d="M11.7054 2.75398C14.0718 2.75398 15.3627 3.95005 17.5854 4.5632C24.8475 6.56652 33.5866 5.19643 41.0148 5.19643C44.9246 5.19643 48.8144 5.28118 52.4129 3.38721C53.9157 2.59627 57.9143 0.824239 58.112 4.38228C58.2264 6.4413 58.3675 8.85112 58.112 10.8955C57.9631 12.0862 55.4228 10.5144 54.8554 10.2623C53.2951 9.56877 50.824 10.0813 49.1563 10.0813C43.9217 10.0813 39.1852 8.45303 33.6875 8.45303C29.9563 8.45303 26.1979 8.32449 22.4703 8.45303C21.0637 8.50153 19.6103 9.70478 18.2186 9.08626C17.4337 8.7374 16.5843 7.68641 15.7762 7.63888C14.3793 7.55671 10.595 4.61244 13.3337 5.82966C15.061 6.59732 16.5162 7.73267 18.2186 8.63395C23.7653 11.5704 29.8825 11.7096 36.1299 11.7096C40.7343 11.7096 45.366 11.8412 49.9705 11.7096C53.7038 11.603 54.8554 10.6762 54.8554 7.2318C54.8554 1.36687 50.5228 11.0894 47.9351 11.6644C46.408 12.0038 42.8613 9.26718 44.6785 9.26718C49.195 9.26718 45.085 8.45303 42.9145 8.45303C37.8033 8.45303 32.2826 9.34817 27.6266 7.2318C25.7464 6.37716 23.1154 6.82473 21.0682 6.82473C17.2483 6.82473 22.9371 8.45303 24.3248 8.45303C26.7572 8.45303 28.5621 8.71621 30.838 9.22195C36.389 10.4555 34.0108 12.184 32.421 17.0468C30.4977 22.9301 31.562 29.1845 29.7977 35.1391C28.4974 39.5274 29.6167 45.5998 29.6167 50.1556C29.6167 56.7593 29.6167 63.3629 29.6167 69.9666C29.6167 80.1284 29.6167 90.2902 29.6167 100.452C29.6167 112.038 27.9884 123.383 27.9884 135.008C27.9884 140.994 27.9884 146.979 27.9884 152.965C27.9884 155.678 27.9884 158.392 27.9884 161.106C27.9884 163.772 23.7943 161.445 27.5814 163.549C28.6078 164.119 33.2022 163.875 30.7927 163.187C27.3395 162.2 27.0122 163.252 23.5106 164.318C20.1065 165.354 18.8096 167.332 18.1734 170.831C17.6557 173.678 16.639 174.54 20.254 174.54C22.4251 174.54 24.5962 174.54 26.7672 174.54C30.4417 174.54 29.2753 173.987 27.9884 171.735C25.1195 166.715 16.0262 172.911 24.3248 172.911C25.9079 172.911 31.5615 174.545 32.4663 174.042C33.128 173.674 36.4235 170.081 35.6776 169.655C33.5761 168.454 32.2683 167.795 30.069 167.167C28.1053 166.606 25.1962 162.115 28.8026 162.327C30.5717 162.431 29.1621 168.838 30.6118 170.288C32.7991 172.475 31.9025 174.642 28.8026 173.092C26.7629 172.072 24.7084 170.877 22.7417 169.836C19.4558 168.096 25.097 168.026 26.3601 168.026C29.4382 168.026 23.9959 168.026 23.1035 168.026C22.5901 168.026 27.6517 168.151 23.9177 166.579C22.8493 166.129 20.4099 166.906 22.2894 167.845C23.4909 168.446 25.0459 168.076 26.3601 168.66C30.466 170.484 27.0592 165.791 27.6266 165.629C29.2594 165.163 34.5016 175.734 34.5016 174.133C34.5016 171.983 35.4756 166.648 34.0493 165.222C33.3149 164.488 31.8714 164.77 30.9284 164.77C30.0519 164.77 32.5885 165.408 33.2804 165.946C36.0541 168.103 32.5355 172.483 34.1398 174.087C36.7606 176.708 34.5676 177.081 30.8832 177.751C28.1847 178.242 26.2732 176.602 23.9177 175.761C22.492 175.252 14.7642 173.01 16.5903 172.097" stroke="black" stroke-width="3" stroke-linecap="round"/>
<path d="M10.9556 4C10.9556 13.3476 10.9556 22.6953 10.9556 32.0429C10.9556 40.1736 11.2595 48.3624 10.5486 56.4674C9.8638 64.2739 8.5132 71.777 8.5132 79.6255C8.5132 87.7368 8.5132 95.8482 8.5132 103.96C8.5132 107.548 8.5132 111.136 8.5132 114.724C8.5132 116.318 7.68944 121.138 8.9655 122.414C10.8257 124.274 13.0006 119.645 14.0313 118.614C16.2201 116.425 18.6614 114.778 21.4944 113.503C25.2466 111.815 31.2806 110.654 35.3801 110.654C41.4763 110.654 53.883 110.945 57.5431 117.167C58.9084 119.488 61.5479 120.757 63.0612 123.363C65.041 126.773 64.8114 131.292 66.6797 134.445C68.9474 138.272 68.7603 144.396 68.7603 148.873C68.7603 160.817 67.9324 170.812 56.0957 176.193C49.402 179.235 37.0569 178.157 30.6762 175.605C29.0319 174.947 28.295 173.179 26.8316 172.529C25.7057 172.029 23.0254 171.285 22.3085 170.448C20.9913 168.912 18.6894 168.597 17.6498 166.83C16.4419 164.777 13.1683 162.54 11.1366 161.312C4.33818 157.201 2 149.616 2 141.908C2 135.735 2.95919 131.527 4.80429 125.761C5.76046 122.773 6.90487 122.122 8.92027 120.107C10.9038 118.123 8.5132 118.934 8.5132 116.715C8.5132 115.495 7.24035 107.703 8.15135 107.442C12.4104 106.225 17.871 104.955 22.3537 104.955C32.1168 104.955 41.9881 104.432 51.6631 105.814C53.1813 106.031 55.1192 107.134 56.729 107.578C60.1033 108.509 63.6579 108.211 67.132 108.211C72.8021 108.211 78.9183 106.108 78.5301 113.096C78.3784 115.827 68.6838 117.167 66.7701 117.167C63.3628 117.167 59.9554 117.167 56.548 117.167C51.6671 117.167 59.5486 117.167 61.0259 117.167C65.8263 117.167 71.8584 117.476 76.8113 118.026C79.308 118.304 83.3981 119.889 85.6765 117.8C86.3086 117.221 86.061 113.387 86.4907 112.282C88.085 108.182 73.6901 109.025 72.5144 109.025C69.2672 109.025 69.9469 108.925 72.6501 109.025C74.9298 109.11 77.5046 109.685 79.3442 110.835C82.4897 112.8 85.3156 123.361 86.4907 126.756C87.3491 129.236 87.0354 132.761 87.4405 135.395C87.8251 137.895 89.3483 140.512 90.3805 142.858C91.6824 145.817 93.9561 148.544 94.994 151.542C95.6333 153.389 95.8818 155.846 96.6223 157.512C97.4718 159.424 98.0453 157.954 96.0343 157.06C92.857 155.648 92.7554 155.531 89.4759 157.105C87.6154 157.998 78.7256 163.595 82.9627 166.016C85.2916 167.347 83.9828 173.027 86.6716 173.343C90.0338 173.739 92.2608 176.729 95.6272 174.564C98.6397 172.628 99.698 166.049 99.698 162.759C99.698 159.249 95.5014 157.06 92.3706 157.06C89.8515 157.06 78.8543 155.315 77.7612 159.141C77.2113 161.065 79.0461 161.581 80.1584 162.759C81.7802 164.476 79.8163 167.86 81.7867 169.092C84.3807 170.713 85.6609 174.971 88.707 174.971C91.3777 174.971 93.3038 174.452 95.8082 173.524C97.7909 172.79 96.4414 171.227 96.4414 169.272C96.4414 165.827 97.2555 162.272 97.2555 158.688C97.2555 154.59 93.8127 152.188 93.1396 148.15C92.5334 144.513 91.2641 139.115 89.295 135.892C88.1206 133.971 85.0619 134.795 83.8221 132.59C82.5669 130.359 82.6008 128.594 82.6008 126.122C82.6008 123.743 82.673 115.224 81.3344 113.503C80.2923 112.163 80.5039 109.237 78.9824 108.392C74.6533 105.987 68.2046 107.561 63.6945 108.211C58.5175 108.957 53.4709 110.086 48.2256 109.794C44.3014 109.576 40.4196 108.211 36.5561 108.211C31.2435 108.211 25.755 109.025 20.3184 109.025C18.5718 109.025 9.69588 110.215 8.69412 108.211C7.46996 105.763 6.8849 99.1968 6.8849 96.406C6.8849 92.471 6.8849 88.5359 6.8849 84.6008C6.8849 80.9928 7.69905 77.1754 7.69905 73.3837C7.69905 68.5857 14.301 69.132 18.283 69.132C25.4841 69.132 32.5949 68.3178 40.0841 68.3178C45.4604 68.3178 50.975 67.9175 56.3219 68.3631C57.6055 68.47 64.466 68.9603 64.6443 69.5843C65.6326 73.0433 65.881 79.5637 61.0259 76.8664C57.0254 74.6439 45.2469 76.0936 40.6269 77.0926C37.4579 77.7777 33.7803 77.2735 30.5857 77.2735C26.8425 77.2735 23.0328 78.0876 19.459 78.0876C15.539 78.0876 11.619 78.0876 7.69905 78.0876" stroke="black" stroke-width="3" stroke-linecap="round"/>
</svg>
