<svg width="56" height="171" viewBox="0 0 56 171" fill="none" xmlns="http://www.w3.org/2000/svg">
<path d="M4.58408 31.1279C4.58408 27.6091 4.94393 23.5653 6.2582 20.2796C7.59368 16.9409 8.25869 11.6973 10.7448 8.96256C11.9364 7.6519 13.796 5.86009 15.2984 4.8777C16.876 3.84622 19.6295 4.80643 21.4592 4.14109C24.1967 3.14563 25.3345 2.19911 28.3901 2.19911C32.3074 2.19911 38.9954 5.10777 42.5531 6.88665C44.8311 8.02566 47.2286 9.55319 49.0487 11.3733C49.7458 12.0703 50.6467 12.7898 51.1246 13.6501C51.8638 14.9807 51.5707 16.591 51.6603 18.0698C51.8694 21.519 52.7987 24.8912 52.7987 28.3489C52.7987 36.5415 55.5793 47.9674 50.388 55.2352C47.9844 58.6003 46.1594 62.6308 43.4572 65.7487C40.4116 69.2629 36.644 71.6906 32.9102 74.3872C31.4624 75.4328 30.1383 74.6066 28.6914 75.2577C26.2653 76.3495 24.4527 78.1571 22.5976 80.0122C20.0189 82.591 18.8239 83.5962 17.7092 87.3784C16.4561 91.6298 15.1243 95.1598 14.4949 99.566C14.0812 102.461 13.0973 105.528 12.1176 108.271C11.2913 110.585 11.8163 113.63 11.8163 116.073C11.8163 122.914 11.8163 129.756 11.8163 136.598" stroke="black" stroke-width="3" stroke-linecap="round"/>
<path d="M13.0216 155.883C12.2844 155.228 10.5496 154.962 9.67341 154.711C7.70879 154.15 7.14789 155.908 5.48811 156.419C2.67756 157.284 1.57066 158.426 1.57066 161.609C1.57066 162.874 1.76563 165.448 2.54165 166.397C5.84981 170.44 12.0928 168.921 15.1645 166.129C17.8642 163.675 15.3913 159.271 13.0216 157.691" stroke="black" stroke-width="3" stroke-linecap="round"/>
</svg>
